<svg width="163" height="38" viewBox="0 0 163 38" fill="none" xmlns="http://www.w3.org/2000/svg">
<g filter="url(#filter0_dddi_87_438)">
<path d="M3 14.8C3 10.3196 3 8.07937 3.87195 6.36808C4.63893 4.86278 5.86278 3.63893 7.36808 2.87195C9.07937 2 11.3196 2 15.8 2H22.2C26.6804 2 28.9206 2 30.6319 2.87195C32.1372 3.63893 33.3611 4.86278 34.1281 6.36808C35 8.07937 35 10.3196 35 14.8V21.2C35 25.6804 35 27.9206 34.1281 29.6319C33.3611 31.1372 32.1372 32.3611 30.6319 33.1281C28.9206 34 26.6804 34 22.2 34H15.8C11.3196 34 9.07937 34 7.36808 33.1281C5.86278 32.3611 4.63893 31.1372 3.87195 29.6319C3 27.9206 3 25.6804 3 21.2V14.8Z" fill="#7F56D9"/>
<path d="M15.7998 2.09961H22.2002C24.442 2.09961 26.1173 2.1004 27.4463 2.20898C28.7741 2.31747 29.7477 2.53335 30.5869 2.96094C32.0732 3.7183 33.2817 4.92681 34.0391 6.41309C34.4666 7.25227 34.6825 8.22592 34.791 9.55371C34.8996 10.8827 34.9004 12.558 34.9004 14.7998V21.2002C34.9004 23.442 34.8996 25.1173 34.791 26.4463C34.6825 27.7741 34.4666 28.7477 34.0391 29.5869C33.2817 31.0732 32.0732 32.2817 30.5869 33.0391C29.7477 33.4666 28.7741 33.6825 27.4463 33.791C26.1173 33.8996 24.442 33.9004 22.2002 33.9004H15.7998C13.558 33.9004 11.8827 33.8996 10.5537 33.791C9.22592 33.6825 8.25227 33.4666 7.41309 33.0391C5.92681 32.2817 4.7183 31.0732 3.96094 29.5869C3.53335 28.7477 3.31747 27.7741 3.20898 26.4463C3.1004 25.1173 3.09961 23.442 3.09961 21.2002V14.7998C3.09961 12.558 3.1004 10.8827 3.20898 9.55371C3.31747 8.22592 3.53335 7.25227 3.96094 6.41309C4.7183 4.92681 5.92681 3.7183 7.41309 2.96094C8.25227 2.53335 9.22592 2.31747 10.5537 2.20898C11.8827 2.1004 13.558 2.09961 15.7998 2.09961Z" stroke="#0A0D12" stroke-opacity="0.12" stroke-width="0.2"/>
<path d="M17 16H21" stroke="white" stroke-width="2" stroke-linecap="round" stroke-linejoin="round"/>
<path d="M26 13V10C26 9.73478 25.8946 9.48043 25.7071 9.29289C25.5196 9.10536 25.2652 9 25 9H23C22.7348 9 22.4804 9.10536 22.2929 9.29289C22.1054 9.48043 22 9.73478 22 10V13" stroke="white" stroke-width="2" stroke-linecap="round" stroke-linejoin="round"/>
<path d="M27 27C27.5304 27 28.0391 26.7893 28.4142 26.4142C28.7893 26.0391 29 25.5304 29 25V21.149C29 19.759 27 18.187 27 16.32V14C27 13.7348 26.8946 13.4804 26.7071 13.2929C26.5196 13.1054 26.2652 13 26 13H22C21.7348 13 21.4804 13.1054 21.2929 13.2929C21.1054 13.4804 21 13.7348 21 14V25C21 25.5304 21.2107 26.0391 21.5858 26.4142C21.9609 26.7893 22.4696 27 23 27H27Z" stroke="white" stroke-width="2" stroke-linecap="round" stroke-linejoin="round"/>
<path d="M29 22H9" stroke="white" stroke-width="2" stroke-linecap="round" stroke-linejoin="round"/>
<path d="M11 27C10.4696 27 9.96086 26.7893 9.58579 26.4142C9.21071 26.0391 9 25.5304 9 25V21.149C9 19.759 11 18.187 11 16.32V14C11 13.7348 11.1054 13.4804 11.2929 13.2929C11.4804 13.1054 11.7348 13 12 13H16C16.2652 13 16.5196 13.1054 16.7071 13.2929C16.8946 13.4804 17 13.7348 17 14V25C17 25.5304 16.7893 26.0391 16.4142 26.4142C16.0391 26.7893 15.5304 27 15 27H11Z" stroke="white" stroke-width="2" stroke-linecap="round" stroke-linejoin="round"/>
<path d="M16 13V10C16 9.73478 15.8946 9.48043 15.7071 9.29289C15.5196 9.10536 15.2652 9 15 9H13C12.7348 9 12.4804 9.10536 12.2929 9.29289C12.1054 9.48043 12 9.73478 12 10V13" stroke="white" stroke-width="2" stroke-linecap="round" stroke-linejoin="round"/>
</g>
<path d="M52.88 25.28C50.7867 25.28 49.0467 24.5867 47.66 23.2C46.2867 21.8 45.6 20.0667 45.6 18C45.6 15.9333 46.2867 14.2067 47.66 12.82C49.0467 11.42 50.7867 10.72 52.88 10.72C54.1333 10.72 55.2933 11.0133 56.36 11.6C57.4267 12.1733 58.2667 12.96 58.88 13.96L56.12 15.56C55.8133 15.0133 55.3733 14.5933 54.8 14.3C54.2267 13.9933 53.5867 13.84 52.88 13.84C51.64 13.84 50.6467 14.22 49.9 14.98C49.1667 15.74 48.8 16.7467 48.8 18C48.8 19.2533 49.1667 20.26 49.9 21.02C50.6467 21.78 51.64 22.16 52.88 22.16C53.5867 22.16 54.2267 22.0067 54.8 21.7C55.3867 21.3933 55.8267 20.9733 56.12 20.44L58.88 22.04C58.28 23.04 57.4467 23.8333 56.38 24.42C55.3133 24.9933 54.1467 25.28 52.88 25.28Z" fill="#181D27"/>
<path d="M67.6374 15H70.6374V25H67.6374V24.06C66.9307 24.8733 65.9374 25.28 64.6574 25.28C63.3374 25.28 62.2107 24.7733 61.2773 23.76C60.344 22.7333 59.8773 21.48 59.8773 20C59.8773 18.52 60.344 17.2733 61.2773 16.26C62.2107 15.2333 63.3374 14.72 64.6574 14.72C65.9374 14.72 66.9307 15.1267 67.6374 15.94V15ZM63.5373 21.78C63.9774 22.22 64.5507 22.44 65.2574 22.44C65.964 22.44 66.5373 22.22 66.9774 21.78C67.4174 21.34 67.6374 20.7467 67.6374 20C67.6374 19.2533 67.4174 18.66 66.9774 18.22C66.5373 17.78 65.964 17.56 65.2574 17.56C64.5507 17.56 63.9774 17.78 63.5373 18.22C63.0973 18.66 62.8773 19.2533 62.8773 20C62.8773 20.7467 63.0973 21.34 63.5373 21.78Z" fill="#181D27"/>
<path d="M72.8383 25V10.4H75.8383V25H72.8383Z" fill="#181D27"/>
<path d="M78.0336 25V10.4H81.0336V25H78.0336Z" fill="#181D27"/>
<path d="M85.9089 21.2C86.2556 22.1333 87.0556 22.6 88.3089 22.6C89.1222 22.6 89.7622 22.3467 90.2289 21.84L92.6289 23.22C91.6422 24.5933 90.1889 25.28 88.2689 25.28C86.5889 25.28 85.2422 24.78 84.2289 23.78C83.2289 22.78 82.7289 21.52 82.7289 20C82.7289 18.4933 83.2222 17.24 84.2089 16.24C85.2089 15.2267 86.4889 14.72 88.0489 14.72C89.5022 14.72 90.7089 15.2267 91.6689 16.24C92.6422 17.24 93.1289 18.4933 93.1289 20C93.1289 20.4267 93.0889 20.8267 93.0089 21.2H85.9089ZM85.8489 18.96H90.1489C89.8556 17.9067 89.1489 17.38 88.0289 17.38C86.8689 17.38 86.1422 17.9067 85.8489 18.96Z" fill="#181D27"/>
<path d="M97.8305 16.78C98.0171 16.14 98.3905 15.6533 98.9505 15.32C99.5238 14.9733 100.15 14.8 100.83 14.8V18.2C100.097 18.08 99.4105 18.2067 98.7705 18.58C98.1438 18.94 97.8305 19.5733 97.8305 20.48V25H94.8305V15H97.8305V16.78Z" fill="#181D27"/>
<path d="M113.653 25H110.013L105.533 18.52V25H102.333V11H105.533V17.08L109.813 11H113.453L108.733 17.82L113.653 25Z" fill="#181D27"/>
<path d="M117.512 13.6C117.166 13.9467 116.746 14.12 116.252 14.12C115.759 14.12 115.332 13.9467 114.972 13.6C114.626 13.24 114.452 12.8133 114.452 12.32C114.452 11.8267 114.626 11.4067 114.972 11.06C115.332 10.7 115.759 10.52 116.252 10.52C116.746 10.52 117.166 10.7 117.512 11.06C117.872 11.4067 118.052 11.8267 118.052 12.32C118.052 12.8133 117.872 13.24 117.512 13.6ZM114.752 25V15H117.752V25H114.752Z" fill="#181D27"/>
<path d="M125.808 17.88H123.748V21.42C123.748 21.82 123.908 22.0733 124.228 22.18C124.548 22.2867 125.074 22.32 125.808 22.28V25C123.901 25.2 122.581 25.02 121.848 24.46C121.114 23.8867 120.748 22.8733 120.748 21.42V17.88H119.148V15H120.748V13.1L123.748 12.2V15H125.808V17.88Z" fill="#181D27"/>
<path d="M141.702 25L141.002 22.8H135.802L135.102 25H131.602L136.362 11H140.442L145.202 25H141.702ZM136.762 19.8H140.042L138.402 14.66L136.762 19.8Z" fill="#181D27"/>
<path d="M151.695 11C153.069 11 154.229 11.4667 155.175 12.4C156.122 13.3333 156.595 14.4667 156.595 15.8C156.595 17.1333 156.122 18.2667 155.175 19.2C154.229 20.1333 153.069 20.6 151.695 20.6H149.595V25H146.395V11H151.695ZM151.695 17.6C152.189 17.6 152.595 17.4267 152.915 17.08C153.235 16.7333 153.395 16.3067 153.395 15.8C153.395 15.2933 153.235 14.8667 152.915 14.52C152.595 14.1733 152.189 14 151.695 14H149.595V17.6H151.695Z" fill="#181D27"/>
<path d="M158.192 11H161.392V25H158.192V11Z" fill="#181D27"/>
<defs>
<filter id="filter0_dddi_87_438" x="0" y="0" width="38" height="38" filterUnits="userSpaceOnUse" color-interpolation-filters="sRGB">
<feFlood flood-opacity="0" result="BackgroundImageFix"/>
<feColorMatrix in="SourceAlpha" type="matrix" values="0 0 0 0 0 0 0 0 0 0 0 0 0 0 0 0 0 0 127 0" result="hardAlpha"/>
<feOffset dy="1"/>
<feGaussianBlur stdDeviation="1"/>
<feColorMatrix type="matrix" values="0 0 0 0 0.0392157 0 0 0 0 0.0509804 0 0 0 0 0.0705882 0 0 0 0.06 0"/>
<feBlend mode="normal" in2="BackgroundImageFix" result="effect1_dropShadow_87_438"/>
<feColorMatrix in="SourceAlpha" type="matrix" values="0 0 0 0 0 0 0 0 0 0 0 0 0 0 0 0 0 0 127 0" result="hardAlpha"/>
<feOffset dy="1"/>
<feGaussianBlur stdDeviation="1.5"/>
<feColorMatrix type="matrix" values="0 0 0 0 0.0392157 0 0 0 0 0.0509804 0 0 0 0 0.0705882 0 0 0 0.1 0"/>
<feBlend mode="normal" in2="effect1_dropShadow_87_438" result="effect2_dropShadow_87_438"/>
<feColorMatrix in="SourceAlpha" type="matrix" values="0 0 0 0 0 0 0 0 0 0 0 0 0 0 0 0 0 0 127 0" result="hardAlpha"/>
<feMorphology radius="0.5" operator="erode" in="SourceAlpha" result="effect3_dropShadow_87_438"/>
<feOffset dy="1"/>
<feGaussianBlur stdDeviation="0.5"/>
<feComposite in2="hardAlpha" operator="out"/>
<feColorMatrix type="matrix" values="0 0 0 0 0.0392157 0 0 0 0 0.0509804 0 0 0 0 0.0705882 0 0 0 0.13 0"/>
<feBlend mode="normal" in2="effect2_dropShadow_87_438" result="effect3_dropShadow_87_438"/>
<feBlend mode="normal" in="SourceGraphic" in2="effect3_dropShadow_87_438" result="shape"/>
<feColorMatrix in="SourceAlpha" type="matrix" values="0 0 0 0 0 0 0 0 0 0 0 0 0 0 0 0 0 0 127 0" result="hardAlpha"/>
<feOffset dy="-0.5"/>
<feGaussianBlur stdDeviation="0.25"/>
<feComposite in2="hardAlpha" operator="arithmetic" k2="-1" k3="1"/>
<feColorMatrix type="matrix" values="0 0 0 0 0.0392157 0 0 0 0 0.0509804 0 0 0 0 0.0705882 0 0 0 0.1 0"/>
<feBlend mode="normal" in2="shape" result="effect4_innerShadow_87_438"/>
</filter>
</defs>
</svg>
